
<svg xmlns="http://www.w3.org/2000/svg" version="1.1" xmlns:xlink="http://www.w3.org/1999/xlink" preserveAspectRatio="none" x="0px" y="0px" width="92px" height="92px" viewBox="0 0 92 92">
<defs>
<radialGradient id="Gradient_1" gradientUnits="userSpaceOnUse" cx="0" cy="0" r="74.90195362105051" fx="23.731715686274512" fy="15.767254901960786" gradientTransform="matrix( 0.8329222000755208, 0.5533901052795887, -0.5962795072870839, 0.8980072848339765, 51.95,18.3) " spreadMethod="pad">
<stop  offset="0.7843137254901961%" stop-color="#000000" stop-opacity="0"/>

<stop  offset="100%" stop-color="#000000" stop-opacity="0.7098039215686275"/>

<stop  offset="100%" stop-color="#000000" stop-opacity="0.21176470588235294"/>
</radialGradient>

<linearGradient id="Gradient_2" gradientUnits="userSpaceOnUse" x1="46.425000000000004" y1="50" x2="44.275" y2="-32" spreadMethod="pad">
<stop  offset="0%" stop-color="#FFFFFF" stop-opacity="0"/>

<stop  offset="100%" stop-color="#FFFFFF" stop-opacity="0.7098039215686275"/>

<stop  offset="100%" stop-color="#000000" stop-opacity="0.21176470588235294"/>
</linearGradient>

<g id="Crimson_Button_0_Layer0_0_FILL">
<path fill="#8F1420" stroke="none" d="
M 78.55 13.45
Q 65.05 0 46 0 26.95 0 13.45 13.45 0 26.95 0 46.05 0 65.1 13.45 78.55 26.95 92 46 92 61.3 92 72.95 83.35 73.6 82.85 74.3 82.3 76.45 80.55 78.55 78.55 92 65.1 92 46.05 92 26.95 78.55 13.45 Z"/>
</g>

<g id="colrisimo_0_Layer0_0_FILL">
<path fill="url(#Gradient_1)" stroke="none" d="
M 98.7 49.35
Q 98.7 28.95 84.25 14.45 69.8 0 49.4 0 28.95 0 14.45 14.45 0 28.95 0 49.35 0 69.8 14.45 84.25 28.95 98.7 49.4 98.7 69.8 98.7 84.25 84.25 98.7 69.8 98.7 49.35 Z"/>
</g>

<g id="Crimson_Button_0_Layer0_2_FILL">
<path fill="url(#Gradient_2)" stroke="none" d="
M 80.5 33.9
Q 80.9 31.7 80.9 29.45 80.9 23.25 78 18.05 75.8 14.8 72.6 11.85 61.85 2.2 46.65 2.2 31.45 2.2 20.7 11.85 18.05 14.2 16.1 16.8 13.05 21.65 12.65 27.55 12.6 28.45 12.6 29.45 12.6 41.05 22.6 49.2 32.55 57.45 46.7 57.45 60.85 57.45 70.9 49.2 78.85 42.65 80.5 33.9 Z"/>
</g>
</defs>

<g transform="matrix( 1, 0, 0, 1, 0,0) ">
<g transform="matrix( 1, 0, 0, 1, 0,0) ">
<use xlink:href="#Crimson_Button_0_Layer0_0_FILL"/>
</g>

<g transform="matrix( 0.9320068359375, 0, 0, 0.9320068359375, 0,0) ">
<g transform="matrix( 1, 0, 0, 1, 0,0) ">
<use xlink:href="#colrisimo_0_Layer0_0_FILL"/>
</g>
</g>

<g transform="matrix( 1, 0, 0, 1, 0,0) ">
<use xlink:href="#Crimson_Button_0_Layer0_2_FILL"/>
</g>
</g>
</svg>
