
<svg xmlns="http://www.w3.org/2000/svg" version="1.1" xmlns:xlink="http://www.w3.org/1999/xlink" preserveAspectRatio="none" x="0px" y="0px" width="88px" height="88px" viewBox="0 0 88 88">
<defs>
<linearGradient id="Gradient_1" gradientUnits="userSpaceOnUse" x1="-0.025000000000005684" y1="48.7" x2="97.325" y2="48.7" spreadMethod="pad">
<stop  offset="0%" stop-color="#000000" stop-opacity="0"/>

<stop  offset="100%" stop-color="#090909" stop-opacity="0.47843137254901963"/>
</linearGradient>

<linearGradient id="Gradient_2" gradientUnits="userSpaceOnUse" x1="51.35000000000001" y1="35.1875" x2="101.45" y2="-1.4875000000000007" spreadMethod="pad">
<stop  offset="0%" stop-color="#FFFFFF" stop-opacity="0"/>

<stop  offset="100%" stop-color="#FFFFFF" stop-opacity="0.6470588235294118"/>

<stop  offset="100%" stop-color="#FFFFFF" stop-opacity="0.6470588235294118"/>
</linearGradient>

<linearGradient id="Gradient_3" gradientUnits="userSpaceOnUse" x1="22.362499999999997" y1="69.19999999999999" x2="53.1375" y2="128" spreadMethod="pad">
<stop  offset="0%" stop-color="#FFFFFF" stop-opacity="0"/>

<stop  offset="100%" stop-color="#FFFFFF" stop-opacity="0.6470588235294118"/>

<stop  offset="100%" stop-color="#FFFFFF" stop-opacity="0.6470588235294118"/>
</linearGradient>

<filter id="Filter_1" x="-20%" y="-20%" width="140%" height="140%" color-interpolation-filters="sRGB">
<feColorMatrix in="SourceGraphic" type="matrix" values="1 0 0 0 0 0 1 0 0 0 0 0 1 0 0 0 0 0 0.63 0" result="result1"/>
</filter>

<g id="Layer5_0_FILL">
<path fill="#55A346" stroke="none" d="
M 14.35 35.5
Q 7.6 39.85 3.4 47.25 2 49.7 0.95 51.7 1.55 55.3 2.7 58.7 2.95 59.45 3.25 60.2 6.45 68.4 13.2 75.2 26.15 88.15 44.35 88.15 62.55 88.15 75.5 75.2 75.65 75 75.85 74.85 79.4 71.2 81.95 67.2 80.95 66.4 79.9 65.6 71.8 59.1 66.95 55.25 48.55 40.15 43.25 36.4 35.85 31.2 28.35 31.2 21.1 31.2 14.35 35.5 Z"/>

<path fill="#59B548" stroke="none" d="
M 88.35 44.1
Q 88.35 33.75 84.25 25.15 81.1 18.5 75.5 12.85 69.3 6.65 61.9 3.45 53.8 0 44.35 0 34.85 0 26.8 3.45 19.55 6.6 13.55 12.55 13.4 12.7 13.2 12.85 0.3 25.8 0.3 44.1 0.3 48 0.95 51.7 2 49.7 3.4 47.25 7.6 39.85 14.35 35.5 21.1 31.2 28.35 31.2 35.85 31.2 43.25 36.4 48.55 40.15 66.95 55.25 71.8 59.1 79.9 65.6 80.95 66.4 81.95 67.2 83.2 65.1 84.25 63 88.35 54.35 88.35 44.1 Z"/>
</g>

<g id="S_mbolo_1_0_Layer0_0_FILL">
<path fill="url(#Gradient_1)" stroke="none" d="
M 92.8 27.8
Q 89.3 20.45 83.1 14.25 76.25 7.4 68.1 3.85 59.15 0 48.7 0 38.2 0 29.3 3.85 21.1 7.4 14.25 14.25 0 28.55 0 48.75 0 68.85 14.25 83.15 28.55 97.45 48.7 97.45 68.8 97.45 83.1 83.15 89.3 76.95 92.8 69.65 97.35 60.1 97.35 48.75 97.35 37.35 92.8 27.8 Z"/>
</g>

<g id="Layer3_0_FILL">
<path fill="url(#Gradient_2)" stroke="none" d="
M 77.35 17.9
Q 71.2 9.5 61.6 7.45 52.1 5.4 44.7 10.9 37.25 16.3 36.25 26 35.4 35.75 41.45 44.1 47.6 52.45 57.1 54.5 66.7 56.55 74.1 51.1 81.55 45.65 82.5 35.95 83.45 26.2 77.35 17.9 Z"/>
</g>

<g id="Layer2_0_FILL">
<path fill="url(#Gradient_3)" stroke="none" d="
M 18.1 73.55
Q 20.2 77.7 25.55 80.8 30.95 84 36.35 84.35 41.8 84.75 44.15 82.1 46.5 79.55 44.35 75.4 42.2 71.35 36.9 68.2 31.5 65 26.05 64.65 20.6 64.25 18.3 66.85 15.9 69.5 18.1 73.55 Z"/>
</g>
</defs>

<g transform="matrix( 0.9994354248046875, 0, 0, 0.998291015625, -0.3,0) ">
<use xlink:href="#Layer5_0_FILL"/>
</g>

<g transform="matrix( 0, 0.9040374755859375, -0.9029998779296875, 0, 88,0) ">
<g transform="matrix( 1, 0, 0, 1, 0,0) ">
<use filter="url(#Filter_1)" xlink:href="#S_mbolo_1_0_Layer0_0_FILL"/>
</g>
</g>

<g transform="matrix( 0.99603271484375, 0, 0, 0.998291015625, 0,0) ">
<use xlink:href="#Layer3_0_FILL"/>
</g>

<g transform="matrix( 0.99603271484375, 0, 0, 0.998291015625, 0,0) ">
<use xlink:href="#Layer2_0_FILL"/>
</g>
</svg>
