
<svg xmlns="http://www.w3.org/2000/svg" version="1.1" xmlns:xlink="http://www.w3.org/1999/xlink" preserveAspectRatio="none" x="0px" y="0px" width="92px" height="92px" viewBox="0 0 92 92">
<defs>
<radialGradient id="Gradient_1" gradientUnits="userSpaceOnUse" cx="0" cy="0" r="69.81603616827584" fx="22.11980392156863" fy="14.697401960784317" gradientTransform="matrix( 0.8329032009185183, 0.5534187003523517, -0.5962097289464029, 0.8978954326324956, 48.4,17.05) " spreadMethod="pad">
<stop  offset="0%" stop-color="#E56D3B"/>

<stop  offset="100%" stop-color="#D52313"/>

<stop  offset="100%" stop-color="#000000" stop-opacity="0.21176470588235294"/>
</radialGradient>

<linearGradient id="Gradient_2" gradientUnits="userSpaceOnUse" x1="46.325" y1="49.975" x2="44.175" y2="-31.975" spreadMethod="pad">
<stop  offset="0%" stop-color="#FFFFFF" stop-opacity="0"/>

<stop  offset="100%" stop-color="#FFFFFF" stop-opacity="0.7098039215686275"/>

<stop  offset="100%" stop-color="#000000" stop-opacity="0.21176470588235294"/>
</linearGradient>

<g id="Layer2_0_FILL">
<path fill="url(#Gradient_1)" stroke="none" d="
M 78.5 13.45
Q 65.05 0 46.05 0 27 0 13.45 13.45 0 27 0 46 0 65.05 13.45 78.5 27 92 46.05 92 65.05 92 78.5 78.5 92 65.05 92 46 92 27 78.5 13.45 Z"/>
</g>

<g id="Layer1_0_FILL">
<path fill="url(#Gradient_2)" stroke="none" d="
M 80.5 33.95
Q 80.85 31.7 80.85 29.4 80.85 23.25 78 18.05 75.8 14.8 72.6 11.9 61.8 2.25 46.6 2.25 31.35 2.25 20.5 11.9 17.95 14.2 16 16.8 12.9 21.65 12.45 27.5 12.45 28.45 12.45 29.4 12.45 41.05 22.4 49.2 32.45 57.45 46.65 57.45 60.85 57.45 70.9 49.2 78.85 42.65 80.5 33.95 Z"/>
</g>
</defs>

<g transform="matrix( 1, 0, 0, 1, 0,0) ">
<use xlink:href="#Layer2_0_FILL"/>
</g>

<g transform="matrix( 1, 0, 0, 1, 0,0) ">
<use xlink:href="#Layer1_0_FILL"/>
</g>
</svg>
