
<svg xmlns="http://www.w3.org/2000/svg" version="1.1" xmlns:xlink="http://www.w3.org/1999/xlink" preserveAspectRatio="none" x="0px" y="0px" width="77px" height="77px" viewBox="0 0 77 77">
<defs>
<radialGradient id="Gradient_1" gradientUnits="userSpaceOnUse" cx="0" cy="0" r="58.42041194009162" fx="18.510833333333334" fy="12.296176470588232" gradientTransform="matrix( 0.8329708467290841, 0.553316878921503, -0.5963241073295549, 0.8980166051173814, 40.5,14.25) " spreadMethod="pad">
<stop  offset="0.7843137254901961%" stop-color="#CC0000"/>

<stop  offset="100%" stop-color="#A70000"/>

<stop  offset="100%" stop-color="#000000" stop-opacity="0.21176470588235294"/>
</radialGradient>

<linearGradient id="Gradient_2" gradientUnits="userSpaceOnUse" x1="38" y1="41.737500000000004" x2="36.2" y2="-27.0375" spreadMethod="pad">
<stop  offset="0%" stop-color="#FFFFFF" stop-opacity="0"/>

<stop  offset="100%" stop-color="#FFFFFF" stop-opacity="0.7098039215686275"/>

<stop  offset="100%" stop-color="#000000" stop-opacity="0.21176470588235294"/>
</linearGradient>

<g id="Close_0_Layer3_0_FILL">
<path fill="url(#Gradient_1)" stroke="none" d="
M 77 38.5
Q 77 22.6 65.75 11.25 54.4 0 38.55 0 22.6 0 11.25 11.25 0 22.6 0 38.5 0 54.4 11.25 65.75 22.6 77 38.55 77 54.4 77 65.75 65.75 77 54.4 77 38.5 Z"/>
</g>

<g id="Close_0_Layer2_0_FILL">
<path fill="#FFFFFF" stroke="none" d="
M 62.45 14
Q 60.2 11.75 57.75 10
L 39.15 28.6 20 9.45 19.3 9.45
Q 16.8 11.05 14.55 13.25 14.6 13.4 14.6 13.6
L 14.45 13.4
Q 14.1 13.7 13.75 14 11.85 15.95 10.25 18.05
L 10.25 18.3 29.85 37.85 10.25 57.45 10.25 58.65
Q 11.85 60.75 13.75 62.7 13.85 62.7 13.95 62.85 15.85 64.75 17.95 66.25
L 20.05 66.25 39.15 47.2 58.25 66.25 58.3 66.25
Q 60.45 64.65 62.45 62.7 62.75 62.35 63.1 62.05 64.35 60.7 65.5 59.3 66.45 58.05 67.3 56.75
L 67.3 56.7 48.45 37.85 66.95 19.35
Q 66.25 18.35 65.5 17.35 64.2 15.8 62.75 14.25 62.7 14.2 62.6 14.15 62.55 14.05 62.45 14 Z"/>
</g>

<g id="Close_0_Layer1_0_FILL">
<path fill="url(#Gradient_2)" stroke="none" d="
M 64.55 14.95
Q 62.65 12.25 60 9.8 50.95 1.65 38.2 1.65 25.45 1.65 16.35 9.8 14.2 11.7 12.55 13.9 9.95 18 9.6 22.9 9.6 23.7 9.6 24.5 9.6 34.25 17.95 41.1 26.35 48 38.25 48 50.15 48 58.55 41.1 65.25 35.6 66.6 28.3 66.9 26.4 66.9 24.5 66.9 19.3 64.55 14.95 Z"/>
</g>
</defs>

<g transform="matrix( 1, 0, 0, 1, 0,0) ">
<g transform="matrix( 1, 0, 0, 1, 0,0) ">
<use xlink:href="#Close_0_Layer3_0_FILL"/>
</g>

<g transform="matrix( 1, 0, 0, 1, 0,0) ">
<use xlink:href="#Close_0_Layer2_0_FILL"/>
</g>

<g transform="matrix( 1, 0, 0, 1, 0,0) ">
<use xlink:href="#Close_0_Layer1_0_FILL"/>
</g>
</g>
</svg>
