
<svg xmlns="http://www.w3.org/2000/svg" version="1.1" xmlns:xlink="http://www.w3.org/1999/xlink" preserveAspectRatio="none" x="0px" y="0px" width="90px" height="90px" viewBox="0 0 90 90">
<defs>
<g id="Layer0_0_FILL">
<path fill="#FFFFFF" stroke="none" d="
M 271 12.1
Q 271.35 11.3 271.25 10.45 271.1 9.55 270.5 9 269.9 8.5 269.25 8.6 268.5 8.75 268.05 9.55 259.8 23.9 259.8 42.65 259.75 65.85 272.6 82.6 273.05 83.3 273.8 83.35 274.55 83.35 275.1 82.75 275.6 82.1 275.65 81.15 275.65 80.25 275.2 79.6 263.4 64.15 263.4 42.65 263.3 25.4 271 12.1
M 298.35 17.7
Q 295.55 17.7 294.3 21.1 288.65 32.15 288.75 45.45 288.75 59.2 294.85 70.7 296.4 73.15 298.95 73.15 299.75 73.15 300.75 72.9 302.65 72.25 305.05 70.45
L 318.95 57.55
Q 320.5 55.85 319.3 54.4 317 50.45 317.5 45.7 317.5 40.85 319.5 36.85 320.1 35.2 318.9 33.7
L 305.45 21.25
Q 302.35 18.7 300.05 18 299.15 17.7 298.35 17.7
M 284.1 19.7
Q 284.5 18.9 284.35 18.05 284.1 17.15 283.45 16.65 282.85 16.2 282.15 16.45 281.4 16.65 281.05 17.45 275.65 28.8 275.65 42.85 275.65 60.85 284.45 74.35 284.9 75.05 285.65 75.25 286.35 75.3 286.95 74.7 287.5 74.1 287.6 73.2 287.7 72.3 287.2 71.6 279.15 59.25 279.2 42.85 279.15 29.95 284.1 19.7
M 327.95 46.05
Q 327.95 42.8 326.95 40.45 325.85 38.05 324.3 37.95 322.7 37.75 321.55 40.15 320.3 42.55 320.4 46.1 320.3 49.6 321.55 52 322.7 54.35 324.3 54.2 325.85 54.05 326.95 51.6 327.95 49.3 327.95 46.05 Z"/>
</g>
</defs>

<g transform="matrix( 1, 0, 0, 1, -248.85,-0.95) ">
<use xlink:href="#Layer0_0_FILL"/>
</g>
</svg>
