
<svg xmlns="http://www.w3.org/2000/svg" version="1.1" xmlns:xlink="http://www.w3.org/1999/xlink" preserveAspectRatio="none" x="0px" y="0px" width="90px" height="90px" viewBox="0 0 90 90">
<defs>
<g id="Layer2_0_FILL">
<path fill="#FFFFFF" stroke="none" d="
M 105.25 41.35
L 81.45 41.35
Q 77 41.35 73.8 44.5 70.65 47.65 70.65 52.15
L 70.65 61.65
Q 70.65 66.15 73.8 69.3 77 72.55 81.45 72.55
L 105.25 72.55
Q 109.7 72.55 112.85 69.3 114.7 67.5 115.5 65.15 116.05 63.55 116.05 61.65
L 116.05 52.15
Q 116.05 47.65 112.85 44.5 109.7 41.35 105.25 41.35
M 155.8 21.15
Q 150.8 16.15 143.75 16.15
L 106.35 16.15
Q 99.3 16.15 94.3 21.15 89.35 26.1 89.35 33.15
L 89.35 38.5 107.35 38.5
Q 112.65 38.5 116.4 42.25 120.2 46 120.2 51.35
L 120.2 62.55
Q 120.2 64 119.95 65.15
L 143.75 65.15
Q 150.8 65.15 155.8 60.2 160.75 55.2 160.75 48.15
L 160.75 33.15
Q 160.75 26.1 155.8 21.15 Z"/>
</g>
</defs>

<g transform="matrix( 1, 0, 0, 1, -70.7,0.65) ">
<use xlink:href="#Layer2_0_FILL"/>
</g>
</svg>
