
<svg xmlns="http://www.w3.org/2000/svg" version="1.1" xmlns:xlink="http://www.w3.org/1999/xlink" preserveAspectRatio="none" x="0px" y="0px" width="90px" height="90px" viewBox="0 0 90 90">
<defs>
<g id="Layer3_0_FILL">
<path fill="#FFFFFF" stroke="none" d="
M 27.6 73.45
Q 27.6 69.35 24.75 66.45 21.8 63.55 17.7 63.55 13.65 63.55 10.7 66.45 7.8 69.35 7.8 73.45 7.8 77.55 10.7 80.4 13.65 83.35 17.7 83.35 21.8 83.35 24.75 80.4 27.6 77.55 27.6 73.45
M 41.45 41.85
Q 42.85 39.9 43.9 37.65 45.45 33.65 45.45 28.9 45.45 24.55 43.9 20.8 42.3 17.05 39.5 14 36.7 11.2 33.3 9.35 32.35 8.85 31.45 8.5
L 31.45 8.45
Q 26.85 6.7 21.35 6.55 14.1 6.35 8.2 9.15 7.95 9.25 7.7 9.35 6 10.1 4.75 11.1 4.7 11.1 4.65 11.2 2.45 13.1 1.2 15.55 0 17.4 0 19.95 0 21.8 0.95 23.65 1.55 25.45 3.1 26.75 5.85 29.25 9.95 29.25 13.65 29.25 16.5 26.75 19.25 24.25 19.25 20.5 19.25 19.7 19.1 18.85 19.05 18.55 19 18.2 18.95 17.9 18.95 17.55 18.95 15.7 20.25 14.4 21.55 13.1 23.4 13.1 25.25 13.1 26.6 14.4 27.1 14.9 27.45 15.45 27.5 15.7 27.65 15.9 27.8 16.35 28 16.8 28.6 18.6 28.6 21.15 28.6 24.25 27.65 26.45 27.1 28.9 25.2 30.75 23.65 32.65 21.15 33.65 18.65 34.55 15.8 34.55 13.05 34.55 12.75 35.15 12.4 35.45 12.4 38.3
L 12.4 55.1
Q 12.4 57.25 12.75 58.2 13.35 59.45 15.55 59.45 18.35 59.45 18.35 56.35 18.35 53.85 19 53.2 19.6 52.9 21.75 52.55 27.1 52 31.45 49.8 35.8 47.9 38.9 44.85 40.3 43.45 41.45 41.85 Z"/>
</g>
</defs>

<g transform="matrix( 1, 0, 0, 1, 22.3,0.05) ">
<use xlink:href="#Layer3_0_FILL"/>
</g>
</svg>
