
<svg xmlns="http://www.w3.org/2000/svg" version="1.1" xmlns:xlink="http://www.w3.org/1999/xlink" preserveAspectRatio="none" x="0px" y="0px" width="92px" height="92px" viewBox="0 0 92 92">
<defs>
<g id="Layer0_0_FILL">
<path fill="#FFFFFF" stroke="none" d="
M 55.85 29.05
Q 53.45 29.25 51.2 30.25 45.8 32.6 43.8 38 41.8 43.55 44.1 48.75 46.55 54.15 51.95 56.2 53.45 56.85 55 57.1 56.05 57.25 57.2 57.25 58.15 57.2 59.2 56.95 59.5 56.9 59.8 56.85
L 62.25 62.05
Q 62.2 62.1 62.1 62.2 61.75 62.35 61.65 62.6 60.85 63.55 60.45 64.7 60.25 64.85 60.15 65.05 59.3 67.45 59.85 69.85 60.1 70.55 60.4 71.35 61.2 72.9 62.3 74 63.45 74.95 65 75.65 68.15 76.8 71.3 75.45 74.3 74.05 75.5 70.95 76.75 67.8 75.3 64.6 74.95 63.85 74.5 63.15 73.25 61.5 71.1 60.5 70.95 60.4 70.75 60.4 69 59.75 67.2 59.8 67 59.85 66.7 59.9 66.55 59.95 66.4 60
L 64.75 54.75
Q 65.35 54.4 65.9 53.95 66.35 53.55 66.85 53.15 68.9 51.1 70.05 48.15 72.05 42.75 69.7 37.35 68.4 34.6 66.2 32.7 64.45 30.95 61.9 30 58.85 28.85 55.85 29.05
M 49.55 36.05
Q 49.65 35.45 50.15 35.15 56.85 30.2 62.85 36.55 63.25 36.9 63.25 37.5 63.3 38.05 62.85 38.5 62.3 38.9 61.8 38.9 61.2 38.95 60.75 38.5 56.6 34.1 51.9 37.5 51.35 37.85 50.75 37.75 50.15 37.65 49.9 37.15 49.45 36.65 49.55 36.05
M 58.35 41.95
Q 59.45 44.15 59.2 47.15 59 50.1 57.5 52.1 56.1 54.1 54.15 53.95 53.6 53.9 53 53.65 52.85 53.55 52.7 53.4 51.9 52.75 51.2 51.55 50.15 49.35 50.4 46.45 50.6 43.4 52 41.4 52.95 40.3 53.85 39.9 54.45 39.6 55 39.6 55.15 39.55 55.35 39.6 57.3 39.7 58.35 41.95
M 53 17.55
Q 50.35 16.25 47.65 15.65 45.9 15.25 43.95 15.1 42.05 14.9 40.2 15 31.35 15.25 24.2 21.35 21.75 23.4 19.75 25.9 15.25 31.85 14.6 39.85 13.95 47.8 17.45 54.45 18.95 57.25 21.05 59.65 23.8 63.05 27.35 65.35 28.6 66.05 30.05 66.75 31.4 67.4 32.6 67.85
L 37.3 69.1
Q 38.45 69.25 39.55 69.35 41.15 69.5 42.65 69.55 46.8 69.25 50.95 67.8 53.1 67.05 55.1 65.95 57.3 64.75 59.2 63.2
L 57.85 59.35
Q 56.75 59.4 55.7 59.3 52.45 59.1 49.45 57.75 48.55 57.25 47.75 56.75 43.1 53.75 41.1 48.25 38.9 41.95 41.9 35.85 44.4 30.75 49.35 28.35 50.15 28 51.25 27.6 57.6 25.45 63.6 28.45 64.95 29 66.05 29.8 64.6 27.1 62.5 24.7 60.6 22.4 58.35 20.75 56.05 18.95 53 17.55
M 29.8 46.45
Q 29.8 45.8 29.8 45.15 30 43 30.95 41.55 31.55 40.75 32.2 40.35 32.8 40.2 33.4 40.25 34.45 40.3 35.3 41.55 35.4 41.7 35.55 42 36.4 43.55 36.2 45.7 36 47.8 34.95 49.2 33.9 50.65 32.55 50.55 31.95 50.5 31.4 50.1 30.8 49.65 30.35 48.8 29.9 47.7 29.8 46.45 Z"/>
</g>
</defs>

<g transform="matrix( 1, 0, 0, 1, 0,0) ">
<use xlink:href="#Layer0_0_FILL"/>
</g>
</svg>
