
<svg xmlns="http://www.w3.org/2000/svg" version="1.1" xmlns:xlink="http://www.w3.org/1999/xlink" preserveAspectRatio="none" x="0px" y="0px" width="88px" height="88px" viewBox="0 0 88 88">
<defs>
<g id="Layer1_0_FILL">
<path fill="#FFFFFF" stroke="none" d="
M 69.8 17.25
Q 69.7 17.1 69.5 17.05 68.05 15.6 66.4 14.7 65.85 14.4 65.4 14.2 65.05 14 64.6 13.85 64.2 13.7 63.75 13.55 63.6 13.5 63.35 13.45
L 63.15 13.4
Q 60.95 12.8 58.5 12.8 56.55 12.8 54.65 13.3 53 13.7 51.45 14.5 49.8 15.3 48.25 16.7
L 48.2 16.7 41.5 16.7
Q 40.7 16.7 39.95 17.1 38.9 17.7 37.2 19.4
L 36.3 20.3
Q 25.9 30.15 19.65 37.9 19 38.75 18.35 39.55
L 17.9 40.1 17.85 40.25
Q 16.05 42.55 16.05 45.65 16.05 48.6 17.7 50.85 18 51.35 18.45 51.8 19.55 53.05 20.95 53.65
L 22.45 54.25 22.95 54.25 25.75 54.2 29.25 54.15 48 53.9 52.15 44.35
Q 49.55 43.3 47.5 41.6
L 46.6 41.95 31.7 41.95 29.25 41.95 28.85 41.95 28.45 41.95 28.35 41.95 25.7 41.95 23.9 41.95
Q 22.8 42.2 21.9 43.05 21.7 43.15 21.55 43.3 20.3 44.85 20.3 46.9 20.3 49 21.55 50.45 21.75 50.7 21.95 50.85 22 50.9 22.1 51 22.4 51.25 22.8 51.5 23 51.65 23.25 51.7 23.3 51.7 23.35 51.7 23.6 51.75 23.9 51.8 23.7 51.8 23.5 51.8 23.4 51.75 23.35 51.75
L 23.3 51.75
Q 22.8 51.7 22.4 51.6
L 21.9 51.35
Q 20.95 50.95 20.15 50.1 19.85 49.8 19.65 49.45 18.55 47.9 18.55 45.9 18.55 43.75 19.75 42.2 20 41.95 20.15 41.7 20.7 41.1 21.35 40.75 21.45 40.7 21.5 40.65 22.25 40.2 23.1 40.05 23.55 39.95 24.05 39.95
L 25.25 39.95 29.25 39.95 30.45 39.95 46 39.95
Q 42.65 35.8 43.2 28.9 43 34.55 47.4 38.75 47.7 39.05 48.05 39.35 48.6 39.85 49.15 40.3 50.3 41.15 51.65 41.95 51.95 42.15 52.25 42.3
L 53.25 42.65 53.3 42.65 53.35 42.7 53.45 42.75
Q 53.55 42.75 53.5 42.85
L 53.45 42.9 53.45 42.95
Q 53.2 44.25 48.35 55.45
L 42.85 67.85 42.8 67.8 41.25 71.15 41.15 71.25
Q 40.9 71.8 41.45 72.55
L 40.7 71.9
Q 39.9 71.1 40 70.4
L 40.1 70.4 45.1 60.2 32.5 60.2 30.05 60.2 29.65 60.2 29.25 60.2 29.15 60.2 26.5 60.2 24.75 60.2
Q 23.95 60.35 23.35 60.8 23 61.05 22.7 61.3 22.5 61.4 22.4 61.6 21.1 63.1 21.1 65.15 21.1 67.3 22.4 68.75 22.55 68.95 22.8 69.15 22.85 69.2 22.9 69.25 23.1 69.4 23.3 69.55 23.4 69.7 23.6 69.75 23.85 69.9 24.05 70 24.1 70 24.15 70 24.4 70.05 24.75 70.1 24.5 70.1 24.3 70.1 24.25 70.05 24.15 70.05
L 24.1 70.05
Q 23.6 70 23.25 69.85
L 22.7 69.65
Q 21.75 69.2 21 68.35 20.65 68.05 20.5 67.75 19.35 66.2 19.35 64.15 19.35 62.05 20.55 60.45 20.8 60.2 21 59.95 21.5 59.35 22.15 59 22.25 58.95 22.35 58.9 23.05 58.45 23.9 58.3 24.35 58.25 24.85 58.25
L 26.05 58.25 30.05 58.25 31.25 58.25 45.9 58.25 47.05 55.9 28.25 55.9 28.15 55.9 28.1 55.9 21.25 55.9 21.2 55.9 21.2 55.95
Q 19.95 56.5 18.9 57.65 16.5 60.2 16.5 63.8 16.5 67.05 18.45 69.45 18.5 69.5 18.55 69.55 18.6 69.6 18.6 69.65 18.75 69.75 18.9 69.95 21 72.25 24.05 72.5
L 25.15 72.5 41.65 72.65
Q 42.5 73.25 43.25 73.5 44.15 73.95 45.45 73.85 47.05 73.7 47.85 72.65
L 65.35 54.85 65.35 51.6 49.3 67.8 49.75 65.7 63.65 51.7 64.05 44.95 51.9 56.35 52.7 53.1 62.4 44.3
Q 59.85 45.4 56.55 45.65
L 53.7 49 54.1 47.2 55.7 45.6 54.3 45.4 54.8 43.4
Q 55.25 43.5 56.05 43.6 56.55 43.65 57.25 43.7
L 58.4 43.8
Q 58.55 43.8 58.8 43.8 59.15 43.8 59.5 43.8 60.3 43.75 61.05 43.7 63 43.45 64.75 42.7 67.5 41.45 69.8 39.2 74.35 34.7 74.35 28.3 74.35 21.85 69.8 17.25
M 67.9 18.05
Q 68 18.15 68.1 18.25 72.15 22.25 72.15 27.95 72.15 33.55 68.1 37.45 66.1 39.45 63.7 40.55 62.2 41.2 60.45 41.45 59.85 41.5 59.1 41.55 58.8 41.55 58.5 41.55 56.55 41.55 54.75 41.05 52.75 40.45 51 39.3 49.9 38.5 48.9 37.45 48.65 37.3 48.45 37 48.25 36.75 48 36.5 45.05 33.05 44.85 28.45
L 44.85 28.15
Q 44.85 28.05 44.85 27.95 44.85 24 46.8 20.85 47.7 19.45 48.9 18.25 49.85 17.35 50.85 16.6 54.2 14.3 58.5 14.3 62.2 14.3 65.15 16 66.6 16.8 67.9 18.05
M 47.9 51.05
L 47.9 51.2 47.8 51.2 47.9 51.05
M 55.65 31.95
Q 54.85 31.15 53.7 31.15 52.45 31.15 51.65 31.95 50.85 32.75 50.85 34 50.85 35.15 51.65 36.05 52.45 36.8 53.7 36.8 54.85 36.8 55.65 36.05 56.55 35.15 56.55 34 56.55 32.75 55.65 31.95
M 68.1 19.5
Q 65.7 17.1 62.3 17.1 58.9 17.1 56.55 19.5 54.1 21.95 54.1 25.3 54.1 28.75 56.55 31.15 58.9 33.55 62.3 33.55 65.7 33.55 68.1 31.15 70.55 28.75 70.55 25.3 70.55 21.95 68.1 19.5 Z"/>
</g>
</defs>

<g transform="matrix( 1, 0, 0, 1, 0,0) ">
<use xlink:href="#Layer1_0_FILL"/>
</g>
</svg>
