
<svg xmlns="http://www.w3.org/2000/svg" version="1.1" xmlns:xlink="http://www.w3.org/1999/xlink" preserveAspectRatio="none" x="0px" y="0px" width="92px" height="92px" viewBox="0 0 92 92">
<defs>
<g id="Layer0_0_FILL">
<path fill="#FFFFFF" stroke="none" d="
M 26 264.25
Q 25.95 265.05 26.05 266
L 28.5 287.5
Q 29 291.95 32.2 295.2 35.25 298.25 39.1 298.5
L 57.5 299.4
Q 61.35 299.55 64.15 296.7 67.1 293.8 67.2 289.4
L 67.7 268.85
Q 67.85 263.6 64.75 259.55 61.55 255.4 57 255.2
L 35.6 253.25
Q 31.05 253 28.2 256.85 25.9 260 26 264.25
M 36.2 260.85
Q 37.75 260.95 39.05 262.5 40.2 263.9 40.3 265.95 40.45 267.9 39.45 269.25 38.45 270.55 36.9 270.55 35.35 270.5 34.2 268.95 32.95 267.5 32.75 265.65 32.55 263.55 33.6 262.15 34.55 260.75 36.2 260.85
M 36.3 286.25
Q 37.25 285.1 38.7 285.2 40.25 285.25 41.3 286.5 42.45 287.75 42.5 289.5 42.6 291.15 41.7 292.3 40.75 293.35 39.35 293.3 37.85 293.2 36.8 292.05 35.65 290.8 35.5 289.1 35.4 287.45 36.3 286.25
M 54.05 269.8
Q 53 268.35 52.9 266.35 52.85 264.4 53.9 263.05 55 261.65 56.65 261.75 58.2 261.8 59.35 263.3 60.45 264.8 60.45 266.7 60.5 268.7 59.35 270.05 58.3 271.35 56.75 271.3 55.2 271.2 54.05 269.8
M 51.8 278.6
Q 51.85 280.4 50.8 281.65 49.8 282.85 48.3 282.8 46.8 282.75 45.75 281.4 44.6 280 44.55 278.2 44.4 276.4 45.4 275.1 46.45 273.9 48.05 273.95 49.45 274.05 50.6 275.4 51.65 276.75 51.8 278.6
M 57.35 285.7
Q 58.8 285.75 59.85 287.05 60.85 288.3 60.85 289.95 60.85 291.55 59.85 292.75 58.85 293.8 57.4 293.8 55.95 293.8 55 292.55 53.95 291.3 53.95 289.6 53.85 287.95 54.9 286.8 55.85 285.6 57.35 285.7
M 88.35 248.5
Q 87.9 248.5 87.5 248.65
L 76.45 253.4
Q 73.85 254.35 71.8 259.1 69.7 263.8 69.55 269.3
L 69 290.7
Q 68.9 295.35 70.6 297.25 71.35 298.2 72.4 298.25 73 298.25 73.7 298 74.1 297.8 74.5 297.45
L 85.95 289.05
Q 87.6 287.8 88.6 285.5 89.3 283.8 89.65 280.3
L 91.3 258.45
Q 91.7 253.8 90.65 250.95 89.75 248.6 88.35 248.5
M 87.9 256.25
Q 88.25 257.25 88.1 259.05 88 260.8 87.4 262.35 86.8 263.9 86.05 264.25 85.3 264.55 84.95 263.6 84.4 262.55 84.55 260.7 84.65 258.9 85.3 257.35 85.95 255.8 86.75 255.45 87.45 255.15 87.9 256.25
M 81.4 269.35
Q 82.25 268.95 82.7 269.9 83.15 270.9 83.1 272.65 82.95 274.3 82.35 275.9 81.7 277.35 80.95 277.85 80.1 278.3 79.7 277.4 79.2 276.45 79.3 274.7 79.45 272.95 80.1 271.3 80.65 269.75 81.4 269.35
M 75.45 283.85
Q 76.3 283.4 76.8 284.25 77.35 285.05 77.3 286.7 77.1 288.35 76.55 289.95 75.9 291.45 75.1 292 74.2 292.6 73.7 291.9 73.1 291.05 73.25 289.35 73.3 287.65 73.95 286 74.55 284.4 75.45 283.85
M 84.8 247.45
Q 85.95 247.15 85.8 246.85 85.7 246.7 84.95 246.55 84.5 246.5 83.75 246.4
L 59.1 245.25
Q 56.4 244.9 53.95 245.2 52.75 245.45 51.5 245.65
L 34.75 249.75
Q 32.95 250.05 33.55 250.6 34.2 251.15 37 251.3
L 60.45 253.15
Q 66.55 253.65 70.4 252.1
L 84.8 247.45
M 58.3 247.3
Q 59.55 247 61.35 247.1 63.15 247.2 64.5 247.45 65.9 247.85 65.85 248.25 65.9 248.65 64.45 248.9 63.15 249.1 61.3 249.1 59.55 249.05 58.25 248.6 56.9 248.35 56.9 247.9 56.95 247.5 58.3 247.3 Z"/>
</g>
</defs>

<g transform="matrix( 1.004364013671875, 0, 0, 1.005462646484375, -14.7,-227.05) ">
<use xlink:href="#Layer0_0_FILL"/>
</g>
</svg>
