
<svg xmlns="http://www.w3.org/2000/svg" version="1.1" xmlns:xlink="http://www.w3.org/1999/xlink" preserveAspectRatio="none" x="0px" y="0px" width="92px" height="92px" viewBox="0 0 92 92">
<defs>
<g id="Layer0_0_FILL">
<path fill="#000000" stroke="none" d="
M 37.05 26.9
L 36.85 26.65 36.85 26.75 37.05 26.9 Z"/>
</g>

<g id="Layer0_1_FILL">
<path fill="#FFFFFF" stroke="none" d="
M 37 177.7
Q 36.55 180 36.55 182.55 36.55 191.85 43.1 198.5 49.75 205.1 59.05 205.1 68.35 205.1 74.95 198.5 79.45 194 80.9 188.3 81.45 185.95 81.55 183.35 71.55 179.9 61.15 177.9 60.35 177.75 59.5 177.6
L 37.55 175.65
Q 37.25 176.65 37 177.7
M 59.9 181
Q 60.65 182.25 60.65 184 60.65 185.75 59.9 187 59.15 188.3 58.05 188.3 56.9 188.3 56.15 187 55.35 185.75 55.35 184 55.35 182.25 56.15 181 56.9 179.7 58.05 179.7 59.15 179.7 59.9 181
M 41.25 181
Q 42.05 179.7 43.1 179.7 44.25 179.7 45 181 45.8 182.25 45.8 184 45.8 185.75 45 187 44.25 188.3 43.1 188.3 42.05 188.3 41.25 187 40.45 185.75 40.45 184 40.45 182.25 41.25 181
M 37.1 150.85
Q 34.75 153.25 34.75 156.65 34.75 159.65 36.65 161.95 35.45 165.15 35.2 168.7
L 27.1 172.2 27.1 172.55 35.2 173.2 35.3 173.2
Q 35.8 173.2 36.3 173.2
L 36.3 173.3 58.85 175.15
Q 60.05 175.35 61.3 175.6 72.8 177.6 83.85 181.4 84.05 181.45 84.2 181.5
L 84.7 181.7
Q 84.8 181.75 84.95 181.8 85.4 181.9 85.85 182.1 86.25 182.25 86.75 182.45 89.1 177.25 89.1 171.15 89.1 159.9 81.15 152 73.25 144.1 62.1 144.1 53.15 144.1 46.3 149.25 44.65 148.45 42.8 148.45 39.45 148.45 37.1 150.85
M 38.55 160.45
Q 38.05 159.95 37.75 159.35 36.95 158.05 36.95 156.45 36.95 154.15 38.55 152.45 40.2 150.75 42.55 150.75 43.35 150.75 44.1 151 45.45 151.35 46.5 152.45 48.15 154.15 48.15 156.45 48.15 158.8 46.5 160.45 44.85 162.2 42.55 162.2 40.2 162.2 38.55 160.45 Z"/>
</g>
</defs>

<g transform="matrix( 1, 0, 0, 1, 0,0) ">
<use xlink:href="#Layer0_0_FILL"/>
</g>

<g transform="matrix( 1.004364013671875, 0, 0, 1.006561279296875, -14.7,-129.6) ">
<use xlink:href="#Layer0_1_FILL"/>
</g>
</svg>
