
<svg xmlns="http://www.w3.org/2000/svg" version="1.1" xmlns:xlink="http://www.w3.org/1999/xlink" preserveAspectRatio="none" x="0px" y="0px" width="92px" height="92px" viewBox="0 0 92 92">
<defs>
<g id="Layer0_0_FILL">
<path fill="#FFFFFF" stroke="none" d="
M 72.65 33.3
Q 72.65 27.55 68.55 23.5 64.55 19.45 58.7 19.45
L 31.55 19.45
Q 25.85 19.45 21.75 23.5 17.7 27.55 17.7 33.3
L 17.7 58.75
Q 17.7 64.45 21.75 68.6 25.85 72.6 31.55 72.6
L 58.7 72.6
Q 64.55 72.6 68.55 68.6 72.65 64.45 72.65 58.75
L 72.65 33.3
M 41.35 41.65
Q 42.8 40.05 44.85 40.05 46.9 40.05 48.4 41.65 49.85 43.1 49.85 45.3 49.85 47.45 48.4 49 46.9 50.55 44.85 50.55 42.8 50.55 41.35 49 39.9 47.45 39.9 45.3 39.9 43.1 41.35 41.65
M 31.15 26.3
Q 33.3 26.3 34.7 27.85 36.15 29.35 36.15 31.55 36.15 33.65 34.7 35.3 33.3 36.85 31.15 36.85 29.1 36.85 27.7 35.3 26.2 33.65 26.2 31.55 26.2 29.35 27.7 27.85 29.1 26.3 31.15 26.3
M 62.45 60.5
Q 62.45 62.65 61.1 64.2 59.55 65.75 57.45 65.75 55.45 65.75 53.95 64.2 52.5 62.65 52.5 60.5 52.5 58.35 53.95 56.8 55.45 55.25 57.45 55.25 59.55 55.25 61.1 56.8 62.45 58.35 62.45 60.5 Z"/>
</g>
</defs>

<g transform="matrix( 1, 0, 0, 1, 0,0) ">
<use xlink:href="#Layer0_0_FILL"/>
</g>
</svg>
