
<svg xmlns="http://www.w3.org/2000/svg" version="1.1" xmlns:xlink="http://www.w3.org/1999/xlink" preserveAspectRatio="none" x="0px" y="0px" width="92px" height="92px" viewBox="0 0 92 92">
<defs>
<g id="Layer0_0_FILL">
<path fill="#FFFFFF" stroke="none" d="
M 59.65 26.5
Q 55.75 22.7 50.35 22.7
L 25.05 22.7
Q 19.55 22.7 15.85 26.5 11.95 30.3 11.95 35.7
L 11.95 59.55
Q 11.95 64.95 15.85 68.75 19.55 72.55 25.05 72.55
L 50.35 72.55
Q 55.75 72.55 59.65 68.75 63.4 64.95 63.4 59.55
L 63.4 35.7
Q 63.4 30.3 59.65 26.5
M 49.35 29.35
Q 51.2 29.35 52.65 30.85 53.95 32.25 53.95 34.25 53.95 36.3 52.65 37.75 51.2 39.2 49.35 39.2 47.35 39.2 46 37.75 44.65 36.3 44.65 34.25 44.65 32.25 46 30.85 47.35 29.35 49.35 29.35
M 24.5 29.6
Q 26.4 29.6 27.75 31.1 29.1 32.45 29.1 34.5 29.1 36.6 27.75 38.05 26.4 39.4 24.5 39.4 22.45 39.4 21.15 38.05 19.85 36.6 19.85 34.5 19.85 32.45 21.15 31.1 22.45 29.6 24.5 29.6
M 21.95 57.2
Q 23.35 55.7 25.35 55.7 27.25 55.7 28.65 57.2 30 58.7 30 60.65 30 62.7 28.65 64.15 27.25 65.55 25.35 65.55 23.35 65.55 21.95 64.15 20.65 62.7 20.65 60.65 20.65 58.7 21.95 57.2
M 53.25 56.75
Q 54.55 58.2 54.55 60.15 54.55 62.15 53.25 63.65 51.8 65.1 49.9 65.1 47.95 65.1 46.55 63.65 45.25 62.15 45.25 60.15 45.25 58.2 46.55 56.75 47.95 55.2 49.9 55.2 51.8 55.2 53.25 56.75
M 79.95 29.1
Q 79 25.85 77.65 25.55
L 70.3 23.75
Q 68.45 23.3 67.15 26.7 65.75 30.2 65.75 35.45
L 65.75 59.4
Q 65.75 64.8 67.15 68.15 68.25 70.8 69.65 70.8 70 70.8 70.4 70.6
L 77.7 67.4
Q 79.1 66.7 79.95 63.1 80.9 59.7 80.9 55.4
L 80.9 36.6
Q 80.9 32.25 79.95 29.1
M 76.5 31.75
Q 76.85 30.55 77.4 30.6 77.9 30.65 78.25 31.9 78.65 33.05 78.65 34.8 78.65 36.45 78.25 37.6 77.9 38.8 77.45 38.8 76.95 38.8 76.55 37.55 76.2 36.3 76.2 34.55 76.2 32.85 76.5 31.75
M 75.1 42.55
Q 75.45 43.8 75.45 45.45 75.45 47.25 75.1 48.6 74.75 49.9 74.2 50.05 73.6 50.15 73.2 48.9 72.8 47.6 72.8 45.7 72.8 43.9 73.15 42.6 73.6 41.35 74.15 41.35 74.7 41.35 75.1 42.55
M 71.55 55.65
Q 72 57 72 58.8 72 60.65 71.55 62.15 71.15 63.65 70.55 63.85 69.8 64.1 69.35 62.85 68.9 61.55 68.9 59.6 68.9 57.65 69.35 56.15 69.8 54.65 70.55 54.5 71.15 54.35 71.55 55.65 Z"/>
</g>
</defs>

<g transform="matrix( 1, 0, 0, 1, 0,0) ">
<use xlink:href="#Layer0_0_FILL"/>
</g>
</svg>
