
<svg xmlns="http://www.w3.org/2000/svg" version="1.1" xmlns:xlink="http://www.w3.org/1999/xlink" preserveAspectRatio="none" x="0px" y="0px" width="92px" height="92px" viewBox="0 0 92 92">
<defs>
<g id="Layer0_0_FILL">
<path fill="#FFFFFF" stroke="none" d="
M 15.95 30.25
L 19.25 39.8 31.6 76
Q 33.4 78.45 36.1 77.85 38.65 76.05 38.3 73.7
L 22.65 27.95
Q 21.2 26 19.25 26.2 18.7 26.25 18.2 26.45 16.05 27.5 15.95 30.25
M 68.15 17.4
Q 68 17.15 67.8 16.85 67.75 16.75 67.7 16.7
L 67.7 16.75
Q 67.6 16.85 67.55 16.95 67.4 17.25 67.15 17.4 64.35 20.5 63.05 21.7 60.85 23.5 58.95 24.1 58.45 24.25 57.9 24.35 57.5 24.45 57.05 24.55 55.7 24.75 54.1 24.9 51.85 24.9 47.95 23.05 46.65 22.35 45.25 21.65 44.95 21.5 44.55 21.2 39.6 18.15 35.75 18 33.95 17.85 32.45 18.25 31.9 18.4 31.45 18.6 27.25 20.35 24.75 26.35
L 36.55 62.65
Q 37 59.1 42.5 55.15 43.85 54.05 45.3 53.2 47.45 51.8 49.85 50.7 51.5 49.9 53.15 49.3 55.05 48.55 57.65 48.05 59.15 47.7 60.85 47.45 65.3 46.65 67.25 46 67.3 45.95 67.35 45.95 67.55 45.85 68.05 45.65 68.15 45.5 68.3 45.45 68.45 45.2 68.75 45.05 69.7 44.2 70.4 43.05 71 42.2 71.35 41.2 71.9 39.85 72.1 38.2 72.15 37.85 72.25 37.5 72.45 35.5 72.45 33.6 72.45 30.1 71.65 26.6
L 71.65 26.55
Q 70.55 22 68.15 17.4
M 51.65 35.6
Q 51.35 35.6 51.05 35.55
L 55.2 42.65 55.25 42.7 56.1 44.25
Q 56 44.2 55.85 44.2
L 55.9 44.25
Q 55.85 44.25 55.7 44.25 54.4 44.3 50.15 45.55 44.7 47.2 43.6 48.45
L 37.8 35.45 37.6 35.6 37.6 35.55
Q 37.65 35.5 37.8 35.45 38.05 35.45 38.2 35.35
L 38.2 35.45
Q 38.3 35.45 38.5 35.35 39.6 35.05 41.85 34.7 44.9 34.15 47.7 34.7 50.5 35.25 51.05 35.55
L 47.1 27.4 46.9 27.55 46.75 27.3
Q 46.95 27.35 47.1 27.4
L 47.05 27.3
Q 47.35 27.4 47.6 27.5 47.85 27.55 47.95 27.65 51.5 28.7 54.15 28.4 57.1 28.15 58.15 27.85
L 61.3 34.3
Q 60.35 34.65 58.05 35.2 55.95 35.75 54.15 35.75
L 54.1 35.75
Q 53.95 35.7 53.9 35.75 53.75 35.7 53.55 35.7 52.5 35.65 51.7 35.65
L 51.65 35.6
M 43.25 48.4
L 43.45 48.3
Q 43.4 48.4 43.3 48.45
L 43.25 48.4 Z"/>
</g>
</defs>

<g transform="matrix( 1, 0, 0, 1, 0,0) ">
<use xlink:href="#Layer0_0_FILL"/>
</g>
</svg>
