
<svg xmlns="http://www.w3.org/2000/svg" version="1.1" xmlns:xlink="http://www.w3.org/1999/xlink" preserveAspectRatio="none" x="0px" y="0px" width="92px" height="92px" viewBox="0 0 92 92">
<defs>
<g id="Layer1_0_FILL">
<path fill="#FFFFFF" stroke="none" d="
M 40.8 46.15
Q 40.75 43.95 42.9 43.2
L 51.4 41 51.4 38.65 51.4 37.9
Q 51.55 36.15 54.25 35.45
L 66.8 32.45
Q 64.8 27.75 60.9 23.85 53.1 16 41.9 16 30.85 16 23 23.85 15.1 31.75 15.1 42.95 15.1 54.05 23 61.95 30.3 69.25 40.45 69.75
L 40.8 46.15
M 42.3 33.45
Q 42.3 35.55 41.35 37 40.4 38.6 39.05 38.6 37.8 38.6 36.85 37 35.95 35.55 35.95 33.45 35.95 31.3 36.85 29.75 37.8 28.25 39.05 28.25 40.4 28.25 41.35 29.75 42.3 31.3 42.3 33.45
M 22.05 32.8
Q 22.05 30.7 22.9 29.25 23.85 27.65 25.15 27.65 26.45 27.65 27.4 29.25 28.25 30.7 28.25 32.8 28.25 35 27.4 36.45 26.45 38 25.15 38 23.85 38 22.9 36.45 22.05 35 22.05 32.8
M 47.3 44.9
Q 44.8 45.4 43.85 47.15 42.95 48.7 43.15 52.05
L 43.1 73.3
Q 43 73.6 43 73.8 43.15 77.25 48.3 76.05
L 55.2 73.8 75.2 67.5
Q 78.4 66.1 78.1 61.05
L 78.95 41.8
Q 79.05 39.95 78.35 39.3 77.6 38.5 75.3 38.65
L 68.1 40.05 68.1 37.15
Q 67.4 35.05 65.3 35.65
L 55.85 37.85
Q 53.95 38.1 54 40.65
L 54.15 43.1 47.3 44.9
M 68.1 54.5
L 71.6 53.45 62.8 64.45 53.95 58.45 57.3 57.55 57.3 51.9 68.1 49.3 68.1 54.5 Z"/>
</g>
</defs>

<g transform="matrix( 1, 0, 0, 1, 0,0) ">
<use xlink:href="#Layer1_0_FILL"/>
</g>
</svg>
