
<svg xmlns="http://www.w3.org/2000/svg" version="1.1" xmlns:xlink="http://www.w3.org/1999/xlink" preserveAspectRatio="none" x="0px" y="0px" width="88px" height="88px" viewBox="0 0 88 88">
<defs>
<g id="Target_Words_0_Layer0_0_MEMBER_0_FILL">
<path fill="#FFFFFF" stroke="none" d="
M 546.55 237.45
Q 545.65 239.15 545.65 241.4 545.65 242.85 546.1 244.1 546.6 245.4 547.6 246.35 548.6 247.4 550 247.95 551.4 248.55 553.1 248.55 555.2 248.55 556.9 247.9 558.7 247.1 559.8 245.7
L 559.95 245.7 560.45 248 566.9 248
Q 566.6 246.25 566.6 242.35
L 566.6 234.25
Q 566.6 232.1 566.1 230.4 565.5 228.5 564.4 227.15 563.2 225.8 561.25 225 559.1 224.2 556.35 224.2 553.45 224.2 550.75 224.9 548.8 225.45 547.3 226.25
L 548.6 230.9
Q 549.85 230.15 551.5 229.7 553.3 229.2 555.1 229.2 556.35 229.2 557.25 229.4 558.05 229.7 558.55 230.15 559.3 230.95 559.3 232.15
L 559.3 232.55
Q 556.15 232.55 553.7 233.05 551.15 233.55 549.45 234.7 547.55 235.8 546.55 237.45
M 552.85 240.7
Q 552.85 239.7 553.25 238.95 553.75 238.25 554.75 237.8 555.95 237.2 559.55 237
L 559.55 239.6 559.4 240.8
Q 559.05 241.9 558.05 242.65 556.9 243.45 555.6 243.45 554.3 243.45 553.65 242.7 552.85 242.05 552.85 240.7
M 536.45 243.95
Q 534.75 243.95 533.2 245.2 531.45 246.6 531.55 248.35
L 531.55 270.6
Q 527.6 267.7 525.15 270.6 527.15 275.1 526.85 281.3 526.8 281.6 526.8 281.9
L 526.75 282.6
Q 526.65 283.2 526.55 283.85 526.55 283.95 526.65 284.1
L 526.25 289.45
Q 526.95 291.35 528.6 293.25 531.6 296.65 536.2 297.65 542.3 299 549.35 297.35 557.2 295.5 559.1 291.15 560.65 287.55 559.85 279.2 559.15 272.9 558.55 271.25 552.05 266 542.05 265
L 541.5 248.35
Q 541.45 246.5 540.05 245.25 538.7 244.05 536.45 243.95
M 539.15 233.15
Q 538.15 232.15 536.7 232.15 535.2 232.15 534.1 233.15 533.05 234.3 533.05 235.8 533.05 237.25 534.1 238.25 535.2 239.3 536.7 239.3 538.15 239.3 539.15 238.25 540.25 237.25 540.25 235.8 540.25 234.3 539.15 233.15 Z"/>
</g>
</defs>

<g transform="matrix( 1, 0, 0, 1, 0,0) ">
<g transform="matrix( 1, 0, 0, 1, -501,-215.7) ">
<use xlink:href="#Target_Words_0_Layer0_0_MEMBER_0_FILL"/>
</g>
</g>
</svg>
