
<svg xmlns="http://www.w3.org/2000/svg" version="1.1" xmlns:xlink="http://www.w3.org/1999/xlink" preserveAspectRatio="none" x="0px" y="0px" width="150px" height="150px" viewBox="0 0 150 150">
<defs>
<g id="Layer0_0_FILL">
<path fill="#FFFFFF" stroke="none" d="
M 214.9 165.05
Q 214.9 179.45 225.15 189.75 235.4 199.95 249.85 199.95 264.3 199.95 274.55 189.75 284.8 179.45 284.8 165.05 284.8 150.5 274.55 140.25 264.3 130 249.85 130 235.4 130 225.15 140.25 214.9 150.5 214.9 165.05
M 270.7 174.8
Q 267.15 188.5 250.05 188.4 232.6 187.45 228.9 174.8
L 270.7 174.8
M 212.6 143.4
Q 207.6 144.55 203.75 148.4 202 150.15 200.85 152.1 198.3 156.3 198.3 161.55 198.3 166.75 200.85 170.95 202 172.9 203.75 174.65 206.85 177.75 210.6 179.1 212.55 179.8 214.75 179.95
L 214.85 179.95
Q 210.05 165.05 213.25 149.35 216.1 142.05 222.25 136.05 233.75 124.95 250 124.95 266.2 124.95 277.7 136.05 285.25 143.35 287.85 152.55 289.7 164.95 286.25 177.9 285.95 178.9 285.6 179.95 287.4 179.8 289.05 179.35 293.3 178 296.7 174.6 302.15 169.15 302.15 161.5 302.15 153.9 296.7 148.35 292.45 144.1 287.1 143.25 284.25 138.4 279.85 134.2 267.4 122.1 249.85 122.1 232.4 122.1 219.9 134.2 215.45 138.5 212.6 143.4 Z"/>
</g>
</defs>

<g id="icon" transform="matrix( 1.2163848876953125, 0, 0, 1.2163848876953125, -229.35,-120.8) ">
<use xlink:href="#Layer0_0_FILL"/>
</g>
</svg>
