
<svg xmlns="http://www.w3.org/2000/svg" version="1.1" xmlns:xlink="http://www.w3.org/1999/xlink" preserveAspectRatio="none" x="0px" y="0px" width="150px" height="150px" viewBox="0 0 150 150">
<defs>
<g id="Layer2_0_FILL">
<path fill="#FFFFFF" stroke="none" d="
M 123.1 214.85
L 135.55 242.25 167.95 256.6 200.65 243.9 214.45 215.95 167 235.75 123.1 214.85
M 194.3 175.8
Q 183.6 165.15 168.65 165.15 162.4 165.15 156.9 166.95 149.15 169.55 142.9 175.8 139.55 179.2 137.25 183.1 132.25 191.25 132.25 201.5 132.25 210.3 135.9 217.55 135.95 217.7 136.1 217.95
L 167 232.1 200.9 218.5
Q 204.95 210.85 204.95 201.5 204.95 186.45 194.3 175.8
M 156.7 221.95
Q 154.9 221.95 153.7 219.9 152.45 217.8 152.45 215 152.45 212.2 153.7 210.15 154.9 208.1 156.7 208.1 158.5 208.1 159.75 210.15 161 212.2 161 215 161 217.8 159.75 219.9 158.5 221.95 156.7 221.95
M 184.65 214.7
Q 184.65 217.5 183.4 219.55 182.1 221.6 180.35 221.6 178.55 221.6 177.3 219.55 176.05 217.5 176.05 214.7 176.05 211.85 177.3 209.8 178.55 207.8 180.35 207.8 182.1 207.8 183.4 209.8 184.65 211.85 184.65 214.7 Z"/>
</g>
</defs>

<g transform="matrix( 1.1584625244140625, 0, 0, 1.1584625244140625, -120.5,-169.25) ">
<use xlink:href="#Layer2_0_FILL"/>
</g>
</svg>
