
<svg xmlns="http://www.w3.org/2000/svg" version="1.1" xmlns:xlink="http://www.w3.org/1999/xlink" preserveAspectRatio="none" x="0px" y="0px" width="150px" height="150px" viewBox="0 0 150 150">
<defs>
<g id="Layer3_0_FILL">
<path fill="#FFFFFF" stroke="none" d="
M 340.65 242.25
L 354.95 244.9 348.85 238.15
Q 351.6 236.25 354.15 233.7 364.4 223.45 364.4 209 364.4 207.1 364.25 205.3
L 294.65 205.3
Q 294.45 207.1 294.45 209 294.45 223.45 304.75 233.7 315 243.95 329.45 243.95 335.4 243.95 340.65 242.25
M 416.65 274.15
Q 426.8 264.05 426.8 249.65 426.8 235.15 416.65 225.05 406.45 214.95 392.1 214.95 377.7 214.95 367.5 225.05 359 233.65 357.75 245.45 357.6 246.45 357.55 247.45 357.5 248.55 357.5 249.65 357.5 254.3 358.55 258.45
L 379.45 258.45
Q 378.3 267.95 365.45 271.25 365.25 271.3 365 271.4 366.15 272.75 367.5 274.15 377.7 284.25 392.1 284.25 406.45 284.25 416.65 274.15 Z"/>
</g>
</defs>

<g transform="matrix( 0.8931884765625, 0, 0, 0.90966796875, -243.45,-145.45) ">
<use xlink:href="#Layer3_0_FILL"/>
</g>
</svg>
