
<svg xmlns="http://www.w3.org/2000/svg" version="1.1" xmlns:xlink="http://www.w3.org/1999/xlink" preserveAspectRatio="none" x="0px" y="0px" width="150px" height="150px" viewBox="0 0 150 150">
<defs>
<g id="Layer1_0_FILL">
<path fill="#FFFFFF" stroke="none" d="
M 228.05 150.7
Q 228.05 165.15 238.3 175.45 248.55 185.7 263 185.7 277.45 185.7 287.7 175.45 297.95 165.15 297.95 150.7 297.95 136.25 287.7 125.95 277.45 115.7 263 115.7 248.55 115.7 238.3 125.95 228.05 136.25 228.05 150.7
M 239.35 160.35
Q 240.55 158.4 242.25 158.4 244 158.4 245.2 160.35 246.4 162.3 246.4 165.05 246.4 167.75 245.2 169.7 244 171.7 242.25 171.7 240.55 171.7 239.35 169.7 238.15 167.75 238.15 165.05 238.15 162.3 239.35 160.35
M 265 158.1
Q 266.7 158.1 267.95 160.05 269.15 162 269.15 164.7 269.15 167.45 267.95 169.4 266.7 171.4 265 171.4 263.3 171.4 262.1 169.4 260.9 167.45 260.9 164.7 260.9 162 262.1 160.05 263.3 158.1 265 158.1
M 226.8 188.95
L 228.05 191.4 325.35 191.7
Q 322.4 179 297.1 169.1 296.45 182.3 283.55 188.95
L 226.8 188.95
M 232.3 171.8
Q 231.2 170.75 230 170.15
L 225.05 160.55 219.8 162.6 223.4 169.7
Q 221.5 170.3 219.95 171.8 217.4 174.4 217.4 178 217.4 181.6 219.95 184.15 222.55 186.75 226.15 186.75 227.95 186.75 229.55 186.15 230.5 185.7 231.3 185.05
L 232.25 186.75 239.3 188.45 234.75 179.55
Q 234.85 178.75 234.85 178 234.85 174.4 232.3 171.8 Z"/>
</g>
</defs>

<g transform="matrix( 1.0765228271484375, 0, 0, 1.0765228271484375, -216.65,-93.35) ">
<use xlink:href="#Layer1_0_FILL"/>
</g>
</svg>
